inDegrees=no
num_controls=7
num_derivatives=13
num_iterations=189
num_multipliers=7
num_parameters=0
num_slacks=7
num_states=26
objective=6.487928
objective_accelerations=0.687959
objective_balance=0.055422
objective_effort=0.550212
objective_height=5.170118
objective_ligament=0.024217
solver_duration=1607.062250
status=Solve_Succeeded
success=true
DataType=double
version=3
OpenSimVersion=4.4-2022-07-23-0e9fedc
endheader
time	/jointset/ground_pelvis/pelvis_tilt/value	/jointset/ground_pelvis/pelvis_tx/value	/jointset/ground_pelvis/pelvis_ty/value	/jointset/hip_r/hip_flexion_r/value	/jointset/hip_r/hip_adduction_r/value	/jointset/hip_r/hip_rotation_r/value	/jointset/back/lumbar_extension/value	/jointset/patellofemoral_r/patellar_flexion_r/value	/jointset/knee_r/knee_flexion_r/value	/jointset/knee_r/knee_adduction_r/value	/jointset/knee_r/knee_rotation_r/value	/jointset/ankle_r/ankle_angle_r/value	/jointset/subtalar_r/subtalar_angle_r/value	/jointset/ground_pelvis/pelvis_tilt/speed	/jointset/ground_pelvis/pelvis_tx/speed	/jointset/ground_pelvis/pelvis_ty/speed	/jointset/hip_r/hip_flexion_r/speed	/jointset/hip_r/hip_adduction_r/speed	/jointset/hip_r/hip_rotation_r/speed	/jointset/back/lumbar_extension/speed	/jointset/patellofemoral_r/patellar_flexion_r/speed	/jointset/knee_r/knee_flexion_r/speed	/jointset/knee_r/knee_adduction_r/speed	/jointset/knee_r/knee_rotation_r/speed	/jointset/ankle_r/ankle_angle_r/speed	/jointset/subtalar_r/subtalar_angle_r/speed	/forceset/tau_hip_flexion_r	/forceset/tau_hip_adduction_r	/forceset/tau_hip_rotation_r	/forceset/tau_knee_flexion_r	/forceset/tau_ankle_angle_r	/forceset/tau_subtalar_angle_r	/forceset/tau_lumbar_extension	lambda_cid13_p0	lambda_cid14_p0	lambda_cid14_p1	lambda_cid14_p2	lambda_cid14_p3	lambda_cid14_p4	lambda_cid14_p5	/jointset/ground_pelvis/pelvis_tilt/accel	/jointset/ground_pelvis/pelvis_tx/accel	/jointset/ground_pelvis/pelvis_ty/accel	/jointset/hip_r/hip_flexion_r/accel	/jointset/hip_r/hip_adduction_r/accel	/jointset/hip_r/hip_rotation_r/accel	/jointset/back/lumbar_extension/accel	/jointset/patellofemoral_r/patellar_flexion_r/accel	/jointset/knee_r/knee_flexion_r/accel	/jointset/knee_r/knee_adduction_r/accel	/jointset/knee_r/knee_rotation_r/accel	/jointset/ankle_r/ankle_angle_r/accel	/jointset/subtalar_r/subtalar_angle_r/accel	gamma_cid13_p0	gamma_cid14_p0	gamma_cid14_p1	gamma_cid14_p2	gamma_cid14_p3	gamma_cid14_p4	gamma_cid14_p5
0	-0.006516714449281896	0.09626122114219937	0.9427240275585486	0.1762555651711513	-0.2321527135137815	-0.2616407349940463	-0.0385979564078546	0.07317816487761916	0.07317816487761825	0.1745329251994329	0.1745328906266544	0.0324735960626065	-0.003451811034443018	0	0	0	0	0	0	0	0	0	0	0	0	0	0.2397585262758891	-0.1873555269058319	-0.04664725226269421	-0.4237857207734547	0.4189314707490359	-0.132373825828787	-0.1341819044341576	-39.07617577156487	85.43126121868235	-32.80637378914151	-5.418297593456944	-35.85905858711315	-674.5767596296216	72.35954413852528	-2.542257166737731	-1.264038406550228	-0.7544362437913951	10.55129769314589	-0.2452186453618674	2.997655552629616	-5.232881456912835	10.82830072955309	10.82830072955052	-2.421167394306128	0.2048282006670236	3.554079609768636	0.5269129083022498	8.927835833740418e-08	1.019803952049624e-08	-7.459711339359699e-07	1.701237885706744e-07	5.523612143939397e-08	-1.068833849553476e-08	-3.327360643980176e-07
0.01	-0.006635841247041985	0.09619924030102385	0.9426876913697757	0.1767654138807679	-0.2321638317153993	-0.261482336058981	-0.03886270893443765	0.07370418827591275	0.07370418827590271	0.1744126978792614	0.1745303014147549	0.03264707842605198	-0.003425340149145515	-0.02371599823436432	-0.01231077874873433	-0.007250120294912729	0.101478236080646	-0.002252418045032813	0.03153213895380574	-0.05256625019788259	0.1047574786806327	0.104757478680626	-0.02384532852761712	-0.0005063493398507201	0.03457542947269106	0.005237024088032435	0.2344518400442294	-0.1945652401223083	-0.04541821680103907	-0.4178297998178012	0.4094935801232601	-0.1221653337035885	-0.1297246078100008	-39.09390585268368	82.78941358081228	-28.88844198238259	-5.982330044818486	-34.87767957632749	-675.0111656915849	79.60746846339666	-2.269867305720996	-1.201778138852817	-0.7077344410620801	9.872359373582212	-0.2196535885060995	3.208893789930929	-5.210858533414778	10.23237343524003	10.2323734352406	-2.336115868837714	-0.1765843184657548	3.391130213901678	0.5134271003186193	1.234404642666751e-07	-1.095217854094517e-08	-1.050000589713384e-06	1.509785509705782e-07	1.023381131771899e-07	-2.385102510012735e-07	-4.064917689906932e-07
0.02	-0.006988847257932288	0.09601671556639742	0.9425793670743097	0.1782752995128011	-0.2321983541383552	-0.2610130355897464	-0.039641596309438	0.07526436686057751	0.07526436686057772	0.1740600312050498	0.1745230051460688	0.03316268620379975	-0.003348233034714692	-0.04677584262614184	-0.02410877869018431	-0.01439762133865306	0.2000073844836191	-0.004680844267354911	0.06218030683460323	-0.1028269696833179	0.206831037278133	0.2068310372781316	-0.04648666852916438	-0.0009414113658880683	0.06842508286067654	0.01012724582666065	0.229145153812563	-0.2017749533387705	-0.04418918133921631	-0.4118738788621684	0.4000556894974914	-0.1119568415783756	-0.1252673111858592	-39.14630546266829	80.24077961206619	-24.97212060462042	-6.525622771439685	-34.11204640287352	-674.0351479314294	86.63048372861233	-2.411026398220375	-1.161482645093358	-0.7339123935569147	9.961480157611311	-0.280420280819722	2.820861338027939	-4.771775314423372	10.29151671292662	10.29151671292646	-2.180369689092156	0.2190856634297254	3.40892439282752	0.4575524384214089	1.576025701959461e-07	-3.210239660238658e-08	-1.354030045490798e-06	1.318333133704819e-07	1.494401049149858e-07	-4.663321635070123e-07	-4.802474735833688e-07
0.03	-0.007569544052024304	0.09571814118343906	0.9423997530757644	0.1807571705585224	-0.232257906527822	-0.2602437608863693	-0.04091162095712985	0.07783258342076653	0.07783258342077025	0.1734870286717349	0.1745136030342141	0.03401250575296656	-0.003223938690062893	-0.06923902996498078	-0.03558162300861998	-0.02153112779223685	0.2959286885428862	-0.00723770239927488	0.09151074534571781	-0.1508523478896836	0.3063481610416756	0.3063481610416736	-0.06791838515953985	-0.0009475334158141032	0.1013333518501595	0.01467703058478328	0.2214328822894466	-0.1930672055334511	-0.04219486948627901	-0.4019444063085731	0.3863499142585001	-0.1135650135879339	-0.1193184193694867	-39.2318703351684	75.83293058129706	-26.45686159865316	-6.272318803680564	-31.14704605475482	-673.1747296710723	82.37647194681621	-2.145284796966679	-1.13648401295369	-0.7040563714619976	9.341732327340353	-0.2446998529786055	2.964608893290519	-4.769077278950908	9.712161491741426	9.712161491741481	-2.095458679386872	-0.1116634532253006	3.20098073382312	0.4453051618966048	1.748111473856193e-07	-4.695074727219064e-08	-1.511991934168314e-06	1.107390222686482e-07	1.774046969509087e-07	-6.243575766097229e-07	-5.144460050616785e-07
